<?xml version="1.0" standalone="no"?>
<!DOCTYPE svg PUBLIC "-//W3C//DTD SVG 1.1//EN" "http://www.w3.org/Graphics/SVG/1.1/DTD/svg11.dtd" >
<svg xmlns="http://www.w3.org/2000/svg">
<metadata>Generated by IcoMoon</metadata>
<defs>
<font id="icomoon" horiz-adv-x="1024">
<font-face units-per-em="1024" ascent="960" descent="-64" />
<missing-glyph horiz-adv-x="1024" />
<glyph unicode="&#x20;" horiz-adv-x="512" d="" />
<glyph unicode="&#xe601;" glyph-name="user-solid" d="M1023.999 0v-42.667c0-6.321-1.975-11.457-5.926-15.407s-9.086-5.926-15.407-5.926h-981.333c-6.321 0-11.457 1.975-15.407 5.926s-5.926 9.086-5.926 15.407v42.667c0 39.506 13.234 72.889 39.704 100.148s58.469 48.593 96 64c37.531 15.407 75.062 30.025 112.593 43.852s69.531 31.802 96 53.926c26.469 22.124 39.704 48.592 39.704 79.407-3.161 3.161-7.704 8.099-13.63 14.815s-16.197 21.728-30.815 45.037c-14.617 23.309-27.654 48-39.111 74.074s-21.728 59.852-30.815 101.333c-9.086 41.482-13.63 83.95-13.63 127.407 0 70.321 25.086 130.568 75.259 180.741s110.419 75.259 180.741 75.259c70.321 0 130.568-25.086 180.741-75.259s75.259-110.419 75.259-180.741c0-43.457-4.346-85.728-13.037-126.815s-19.358-75.259-32-102.519c-12.642-27.259-25.284-51.358-37.926-72.296s-23.309-36.543-32-46.815l-13.037-14.222c0-30.815 13.234-57.284 39.704-79.407s58.469-40.099 96-53.926c37.531-13.827 75.062-28.444 112.593-43.852s69.531-36.741 96-64c26.469-27.259 39.704-60.642 39.704-100.148v0z" />
<glyph unicode="&#xe603;" glyph-name="notification" d="M405.333 42.667h213.333c0-30.025-10.272-55.309-30.815-75.852s-45.827-30.815-75.852-30.815c-30.025 0-55.309 10.271-75.852 30.815s-30.815 45.827-30.815 75.852v0zM1022.815 141.037c-3.951-8.691-10.667-13.037-20.148-13.037h-981.333c-9.482 0-16.198 4.346-20.148 13.037-3.161 9.482-1.58 17.383 4.741 23.704l186.074 184.889v290.37c0 88.494 31.21 163.95 93.63 226.37s137.876 93.63 226.37 93.63c88.494 0 163.95-31.21 226.37-93.63s93.63-137.876 93.63-226.37v-290.37l186.074-184.889c6.321-6.321 7.901-14.222 4.741-23.704v0z" />
<glyph unicode="&#xe608;" glyph-name="broadcast" d="M467.57-26.283v469.39c-20.537 13.54-34.247 36.978-34.247 63.545 0 41.927 34.247 75.833 76.516 75.833 42.382 0 76.572-33.906 76.572-75.833 0-30.834-18.66-57.344-44.828-69.063v-463.815c0-20.366-16.782-36.978-37.319-36.978s-36.693 16.555-36.693 36.921v0zM695.865 356.75c6.201-3.698 12.459-5.575 19.342-5.575 12.459 0 24.917 6.144 31.744 17.863 27.989 45.625 41.7 98.076 39.14 151.723-6.201 149.276-133.803 265.842-284.956 260.267-72.192-3.072-139.378-33.906-189.156-87.609-49.778-52.907-75.264-122.652-72.135-194.788 1.877-42.553 13.028-83.285 33.564-120.263 9.956-17.863 32.996-24.69 51.029-14.165 18.034 9.842 24.292 32.711 14.279 50.574-14.905 27.136-22.983 56.092-24.86 87.552-1.877 52.395 16.839 103.026 52.281 141.881s85.845 60.473 138.752 62.919c109.568 4.324 202.866-80.213 207.246-189.383 1.877-38.855-8.135-77.084-28.672-110.421-10.581-17.294-4.949-40.107 12.402-50.574v0zM805.433 214.3c15.531-12.971 39.196-11.093 52.907 4.267 69.063 81.465 107.008 184.434 107.008 291.157 0 248.604-203.435 450.276-454.258 450.276-250.709 0-454.201-201.671-454.201-450.276 0-112.811 42.325-220.16 118.841-303.502 7.452-8.021 17.465-12.345 27.364-12.345 8.704 0 18.034 3.129 24.917 9.899 14.962 13.54 16.213 36.978 2.503 52.452-63.488 69.12-98.93 159.118-98.93 253.497 0 207.246 170.496 376.263 379.563 376.263 209.124 0 379.563-169.017 379.563-376.263 0-88.804-31.744-175.161-89.543-242.972-13.767-15.474-11.947-38.912 4.267-52.452v0z" />
<glyph unicode="&#xe60c;" glyph-name="search" d="M384 960c-105.866 0-196.372-37.573-271.439-112.561-74.988-75.067-112.561-165.573-112.561-271.439s37.573-196.293 112.561-271.36c75.067-75.067 165.573-112.64 271.439-112.64 75.067 0 143.439 19.771 205.115 59.234l289.162-290.343c16.463-16.62 36.628-24.891 60.337-24.891 23.788 0 43.874 8.271 60.495 24.891 16.62 16.542 24.891 36.706 24.891 60.495 0 23.71-8.271 43.874-24.891 60.416l-290.343 289.083c39.463 61.676 59.234 130.048 59.234 205.115 0 105.866-37.573 196.372-112.64 271.439-75.067 74.988-165.494 112.561-271.36 112.561v0zM384 320c-70.341 0-130.599 25.049-180.697 75.225-50.255 50.176-75.303 110.434-75.303 180.775s25.049 130.599 75.303 180.697c50.176 50.176 110.434 75.303 180.697 75.303s130.599-25.049 180.775-75.303c50.176-50.176 75.225-110.434 75.225-180.697s-25.049-130.599-75.225-180.775c-50.176-50.176-110.434-75.225-180.775-75.225v0z" />
<glyph unicode="&#xe611;" glyph-name="tag" d="M988.672 953.088h-387.072c-6.976 0-14.016-2.752-19.712-8.32l-573.44-562.368c-11.264-11.136-11.264-29.12 0-38.848l387.008-381.952c11.328-11.136 28.288-11.136 39.616 0l571.968 562.432c5.696 5.568 8.512 12.48 8.512 19.392v381.824c1.472 15.296-11.328 27.84-26.88 27.84v0zM960.384 555.968l-543.68-536-348.928 341.632 545.216 535.936h347.392v-341.568zM762.688 815.552c-62.144 0-112.96-49.984-112.96-111.040 0-61.12 50.816-111.040 112.96-111.040 62.208 0 113.088 49.984 113.088 111.040s-50.88 111.040-113.088 111.040v0zM802.24 664.256c-21.248-20.8-59.392-20.8-80.512 0-22.592 22.272-22.592 56.96 0 79.168 22.656 22.144 57.856 22.144 80.512 0 22.656-22.208 22.656-56.896 0-79.168v0z" />
<glyph unicode="&#xe616;" glyph-name="add" d="M889.263-64h-754.526c-74.267 0-134.737 60.416-134.737 134.737v754.526c0 74.267 60.47 134.737 134.737 134.737h754.526c74.321 0 134.737-60.47 134.737-134.737v-754.526c0-74.321-60.416-134.737-134.737-134.737zM134.737 906.105c-44.571 0-80.842-36.271-80.842-80.842v-754.526c0-44.571 36.271-80.842 80.842-80.842h754.526c44.571 0 80.842 36.271 80.842 80.842v754.526c0 44.571-36.271 80.842-80.842 80.842h-754.526zM694.003 439.053v44.787h-165.565v178.499h-49.152v-178.499h-165.565v-44.84h165.565v-183.673h49.152v183.673h165.565z" />
<glyph unicode="&#xe617;" glyph-name="checkbox-checked" d="M910.222 960h-796.444c-62.805 0-113.778-50.972-113.778-113.778v-796.444c0-12.231 2.446-23.836 6.030-34.873 14.791-45.682 57.173-78.905 107.748-78.905h796.444c62.805 0 113.778 50.972 113.778 113.778v796.444c0 62.805-50.972 113.778-113.778 113.778zM475.42 167.993l-259.641 259.698 40.22 40.22 219.42-219.364 365.682 365.682 40.22-40.22-405.902-406.016z" />
<glyph unicode="&#xe618;" glyph-name="checkbox" horiz-adv-x="1022" d="M889.708-64h-752.033c-74.022 0-134.292 60.216-134.292 134.292v752.033c0 74.022 60.27 134.292 134.292 134.292h752.033c74.075 0 134.292-60.27 134.292-134.292v-752.033c0-74.075-60.216-134.292-134.292-134.292zM137.676 902.899c-44.424 0-80.575-36.151-80.575-80.575v-752.033c0-44.424 36.151-80.575 80.575-80.575h752.033c44.424 0 80.575 36.151 80.575 80.575v752.033c0 44.424-36.151 80.575-80.575 80.575h-752.033z" />
<glyph unicode="&#xe61a;" glyph-name="master-detail" horiz-adv-x="1312" d="M744.736-64h-744.736v279.296h744.736v-279.296zM744.736 308.352h-744.736v279.296h744.736v-279.296zM744.736 680.736h-744.736v279.264h744.736v-279.264zM1303.328-64h-465.44v1024h465.44v-1024z" />
<glyph unicode="&#xe61b;" glyph-name="grid-view" horiz-adv-x="1303" d="M0 960h1290.419v-279.273h-1290.419v279.273zM0 587.636h1290.419v-279.273h-1290.419v279.273zM0 215.273h1290.419v-279.273h-1290.419v279.273z" />
<glyph unicode="&#xe61d;" glyph-name="location" d="M511.907 960c-192.419 0-348.998-155.601-348.998-346.857 0-76.847 45.521-193.769 143.267-367.849 66.746-118.831 133.12-219.183 135.913-223.372l47.988-72.332c4.841-7.308 13.033-11.683 21.83-11.683s16.989 4.375 21.83 11.683l47.988 72.332c2.793 4.189 68.701 103.657 135.913 223.372 97.745 174.080 143.267 290.956 143.267 367.849 0 191.255-156.532 346.857-348.998 346.857v0zM672.023 270.569c-66.327-118.039-131.165-215.971-133.911-220.067l-26.205-39.471-26.159 39.471c-2.746 4.143-68.096 102.959-133.865 220.113-90.671 161.513-136.657 276.759-136.657 342.528 0 162.583 133.12 294.865 296.727 294.865 163.654 0 296.727-132.282 296.727-294.865-0.047-65.815-46.033-181.062-136.657-342.575v0zM511.907 746.17c-72.611 0-131.677-58.694-131.677-130.886s59.066-130.932 131.677-130.932c72.657 0 131.724 58.74 131.724 130.932s-59.066 130.886-131.724 130.886v0zM511.907 519.773c-52.969 0-96.070 42.822-96.070 95.511 0 52.643 43.101 95.511 96.070 95.511 53.015 0 96.070-42.868 96.070-95.511 0.047-52.689-43.055-95.511-96.070-95.511v0z" />
<glyph unicode="&#xe900;" glyph-name="add-news" horiz-adv-x="1056" d="M67.852 118.289h563.308c22.429 0-21.132 100.926 74.025 186.887s167.642 38.026 167.642 60.459v486.112c0 45.044-36.41 81.088-81.373 81.088h-597.51c-44.678 0-81.373-36.492-81.373-81.536v-649.885c0-60.561-44.719-83.124-44.719-83.124zM221.19 824.256h271.529v-380.108h-271.529v380.108zM547.008 824.256h236.707v-54.289h-236.707v54.289zM547.008 715.636h236.707v-54.289h-236.707v54.289zM547.008 607.017h236.707v-54.289h-236.707v54.289zM547.008 498.438h236.707v-54.289h-236.707v54.289zM783.715 389.818v-33.567l-24.439-9.186-19.207-11.537h-518.879v54.289h562.525zM671.43 278.873l-24.056-51.964h-426.184v54.289l450.24-2.325zM68.585 278.307c0-2.81 0 600.239 0 600.239s-54.778-11.119-54.778-83.613c0-72.535-0.529-612.131 0-611.683 21.015-16.983 54.778 22.441 54.778 95.057v0zM866.323-41.837c102.295 0 185.31 82.168 185.31 183.65s-83.015 183.65-185.31 183.65c-102.295 0-185.31-82.168-185.31-183.65s83.015-183.65 185.31-183.65v0 0zM866.323-3.142c-81.016 0-146.615 64.921-146.615 144.921s65.599 144.921 146.615 144.921c81.016 0 146.615-64.921 146.615-144.921s-65.599-144.921-146.615-144.921v0 0zM885.535 160.618h65.836v-38.085h-65.836v-74.273h-40.898v74.273h-66.175v38.085h66.175v69.462h40.898z" />
<glyph unicode="&#xe901;" glyph-name="check" d="M89.949 452.061l299.544-299.544 90.51 90.51-344.798 344.798-90.51-90.51 45.255-45.255zM479.679 152.84l543.956 543.956-90.51 90.51-589.211-589.211 90.51-90.51 45.255 45.255z" />
<glyph unicode="&#xe902;" glyph-name="close" d="M414.612 448l-414.612 414.612 97.388 97.388 414.612-414.612 414.612 414.612 97.388-97.388-414.612-414.612 414.612-414.612-97.388-97.388-414.612 414.612-414.612-414.612-97.388 97.388 414.612 414.612z" />
<glyph unicode="&#xe903;" glyph-name="image" d="M960 832c17.383 0 32.395-6.321 45.037-18.963s18.963-27.654 18.963-45.037v-640c0-17.383-6.321-32.395-18.963-45.037s-27.654-18.963-45.037-18.963h-896c-17.383 0-32.395 6.321-45.037 18.963s-18.963 27.654-18.963 45.037v640c0 17.383 6.321 32.395 18.963 45.037s27.654 18.963 45.037 18.963h896zM224 704c-26.864 0-49.58-9.284-68.148-27.852s-27.852-41.284-27.852-68.148c0-26.864 9.284-49.58 27.852-68.148s41.284-27.852 68.148-27.852c26.864 0 49.58 9.284 68.148 27.852s27.852 41.284 27.852 68.148c0 26.864-9.284 49.58-27.852 68.148s-41.284 27.852-68.148 27.852v0zM896 192l-256 384-234.667-298.667-149.333 106.667-128-192h768z" />
<glyph unicode="&#xe904;" glyph-name="link-bold" d="M485.975 474.025c-68.283-68.283-68.283-178.462 0-246.746l128.605-130.899c67.948-67.945 178.126-67.945 246.41 0.339s68.283 178.462 0 246.746l-113.741 109.176c-21.472 20.613-22.169 54.731-1.555 76.203s54.731 22.169 76.203 1.555l114.526-109.945c111.163-111.147 111.163-289.575 0.786-399.953s-288.805-110.378-399.183 0l-128.605 130.899c-110.042 110.039-110.042 288.466 0.336 398.844 21.047 21.047 55.171 21.047 76.219 0s21.047-55.171 0-76.219v0zM538.025 421.975c68.283 68.283 68.283 178.462 0 246.746l-128.605 130.899c-67.948 67.945-180.417 67.945-248.7-0.339s-68.283-178.462 0-246.746l114.139-111.853c21.259-20.834 21.603-54.956 0.77-76.215s-54.956-21.603-76.215-0.77l-114.526 112.236c-110.765 110.761-110.765 289.188-0.387 399.566s291.096 110.378 401.473 0l128.605-130.899c110.042-110.039 110.042-288.466-0.336-398.844-21.047-21.047-55.171-21.047-76.219 0s-21.047 55.171 0 76.219v0z" />
<glyph unicode="&#xe905;" glyph-name="website-analytics" horiz-adv-x="1084" d="M430.816 31.384c-46.442-47.354-30.377-85.742 36.175-85.742h163.96c66.421 0 82.921 38.543 37.418 87.317 0 0-25.065 22.255-28.432 35.852-16.1 65.021-20.583 119.605-20.583 119.605h-140.274c0 0-9.296-60.666-20.405-119.605-3.634-19.281-27.858-37.426-27.858-37.426zM45.176 307.34c0-41.624 33.536-75.183 74.998-75.183h843.886c41.427 0 74.998 33.63 74.998 75.183v532.3c0 41.624-33.536 75.183-74.998 75.183h-843.886c-41.427 0-74.998-33.63-74.998-75.183v-532.3zM120.175 960h843.886c66.371 0 120.175-53.744 120.175-120.36v-532.3c0-66.473-53.767-120.36-120.175-120.36h-843.886c-66.371 0-120.175 53.744-120.175 120.36v532.3c0 66.473 53.767 120.36 120.175 120.36zM407.284 630.561l-104.375-108.393-25.754 26.739 104.375 108.393zM825.536 630.156l-101.111-107.612-26.070 26.418 101.111 107.612 26.070-26.418zM600.496 521.135l-132.611 113.096 23.121 29.223 132.611-113.096-23.121-29.223zM245.778 412.756c-40.236 0-72.861 33.87-72.861 75.639s32.625 75.639 72.861 75.639c40.236 0 72.861-33.87 72.861-75.639s-32.625-75.639-72.861-75.639v0 0 0zM245.778 437.973c26.824 0 48.574 22.58 48.574 50.436s-21.75 50.436-48.574 50.436c-26.824 0-48.574-22.58-48.574-50.436s21.75-50.436 48.574-50.436v0 0 0zM440.060 614.484c-40.236 0-72.861 33.87-72.861 75.639s32.625 75.639 72.861 75.639c40.236 0 72.861-33.87 72.861-75.639s-32.625-75.639-72.861-75.639v0 0 0zM440.060 639.702c26.824 0 48.574 22.58 48.574 50.436s-21.75 50.436-48.574 50.436c-26.824 0-48.574-22.58-48.574-50.436s21.75-50.436 48.574-50.436v0 0 0zM658.628 412.756c-40.236 0-72.861 33.87-72.861 75.639s32.625 75.639 72.861 75.639c40.236 0 72.861-33.87 72.861-75.639s-32.625-75.639-72.861-75.639v0 0 0zM658.628 437.973c26.824 0 48.574 22.58 48.574 50.436s-21.75 50.436-48.574 50.436c-26.824 0-48.574-22.58-48.574-50.436s21.75-50.436 48.574-50.436v0 0 0zM852.909 614.484c-40.236 0-72.861 33.87-72.861 75.639s32.625 75.639 72.861 75.639c40.236 0 72.861-33.87 72.861-75.639s-32.625-75.639-72.861-75.639v0 0 0zM852.909 639.702c26.824 0 48.574 22.58 48.574 50.436s-21.75 50.436-48.574 50.436c-26.824 0-48.574-22.58-48.574-50.436s21.75-50.436 48.574-50.436v0 0 0z" />
<glyph unicode="&#xe906;" glyph-name="haro" horiz-adv-x="1328" d="M672.837 47.755h-0.421c-134.811 1.472-267.659 17.408-364.619 43.723-67.627 18.368-144.368 42.901-200.859 85.445-33.749 25.435-48.949 51.915-45.168 78.736 4.88 34.603 39.845 63.888 106.875 89.536 36.821 14.091 69.957 24.261 103.365 31.701 15.755 75.739 48.213 236.875 61.419 317.419 19.851 120.56 40.965 151.771 102.709 151.771 2.779 0 5.664-0.059 8.624-0.144 31.989-0.949 72.064-28.928 114.48-58.544 19.888-13.888 38.677-26.997 55.499-36.437 26.997-15.195 46.437-18.373 58.011-18.373 12.112 0 33.611 4.821 57.664 18.363 16.837 9.44 35.616 22.555 55.499 36.432 42.427 29.632 82.501 57.611 114.507 58.555 2.965 0.091 5.835 0.144 8.619 0.144 61.739 0 82.853-31.211 102.704-151.76 13.259-80.885 45.664-241.829 61.413-317.429 33.424-7.445 66.555-17.627 103.36-31.696 67.035-25.653 101.995-54.939 106.875-89.536 3.787-26.811-11.413-53.301-45.163-78.736-56.491-42.549-133.221-67.067-200.853-85.445-96.981-26.331-229.819-42.261-364.448-43.723h-0.091zM436.123 814.085c-31.531 0-50.555 0-71.125-124.96-13.909-84.88-48.992-258.293-63.792-328.971l-2.155-10.283-10.283-2.112c-35.211-7.259-69.749-17.579-108.699-32.469-71.349-27.291-84.896-51.888-86.613-64.112-2.544-17.968 16.395-36.4 32.731-48.709 52.155-39.269 125.312-62.544 190-80.112 94.453-25.648 224.352-41.179 356.405-42.608 132.021 1.445 261.915 16.976 356.379 42.608 64.683 17.573 137.851 40.832 189.995 80.112 16.331 12.309 35.259 30.736 32.736 48.709-1.723 12.224-15.269 36.816-86.619 64.112-38.939 14.885-73.472 25.205-108.693 32.459l-10.288 2.112-2.144 10.283c-14.779 70.533-49.819 243.733-63.792 328.981-20.565 124.949-39.605 124.949-71.125 124.949-2.48 0-5.024-0.053-7.669-0.133-22.475-0.667-62.144-28.357-97.147-52.8-19.648-13.707-39.952-27.893-58.144-38.096-37.035-20.848-65.488-22.469-73.339-22.469-15.397 0-40.683 3.899-73.669 22.48-18.176 10.197-38.496 24.384-58.144 38.101-34.997 24.432-74.661 52.117-97.12 52.784-2.651 0.085-5.216 0.144-7.685 0.144zM753.445 422.667l-16.347 120.928 166.795 37.365 16.587-122.613c11.019 3.701 21.296 7.531 30.757 11.413l-20.325 150.059-229.467-51.397 20.101-148.619c10.768 0.752 21.403 1.723 31.899 2.864zM339.557 353.728c95.061-55.467 232.347-69.888 332.368-72.043h1.451c100 2.171 237.211 16.592 332.219 72.037-3.968 17.787-12.411 54.779-22.683 94.965-66.555-31.499-181.84-61.301-309.141-62.928h-3.44c-127.029 1.824-241.829 31.573-308.112 62.928-10.277-40.197-18.704-77.179-22.661-94.96z" />
<glyph unicode="&#xe907;" glyph-name="plus" d="M446.836 513.164v446.836h111.709v-446.836h446.836v-111.709h-446.836v-446.836h-111.709v446.836h-446.836v111.709h446.836z" />
<glyph unicode="&#xe908;" glyph-name="adobe" horiz-adv-x="1163" d="M855.673-63.303l-276.708 642.279-187.736-434.795h200.901l78.974-207.488zM734.831 960l427.059-1023.806 1.112 1023.806zM0 960v-1016.597l431.38 1016.597z" />
<glyph unicode="&#xe909;" glyph-name="preview" horiz-adv-x="977" d="M380.881 61.976h-350.54l23.273-23.273v874.751l-23.273-23.273h468.535l-15.882 6.261 234.215-218.663 15.882 17.011h-23.273c0-0.726 0-0.726 0-14.776 0-25.923 0-25.923 0-86.013h46.545c0 60.090 0 60.090 0 86.013 0 14.051 0 14.051 0 14.776v10.111l-248.312 231.825h-500.983v-921.296h373.813v46.545zM947.99-27.18l-32.913-32.913-175.636 175.636 32.913 32.913 175.636-175.636zM915.078-60.093l32.913 32.913-175.636 175.636-32.913-32.913 175.636-175.636zM439.898 249.091c0-109.863 89.046-198.909 198.909-198.909s198.909 89.046 198.909 198.909c0 109.863-89.046 198.909-198.909 198.909s-198.909-89.046-198.909-198.909v0zM486.443 249.091c0 84.157 68.207 152.364 152.364 152.364s152.364-68.207 152.364-152.364c0-84.157-68.207-152.364-152.364-152.364s-152.364 68.207-152.364 152.364v0z" />
<glyph unicode="&#xe90a;" glyph-name="chevron-light" horiz-adv-x="445" d="M17.665 895.637l337.343-456.613v39.683l-337.343-456.613c-10.958-14.833-7.817-35.74 7.015-46.698s35.74-7.817 46.698 7.015l352.002 476.455-352.002 476.455c-10.958 14.833-31.866 17.973-46.698 7.015s-17.973-31.866-7.015-46.698v0z" />
<glyph unicode="&#xe90b;" glyph-name="indeterminate" d="M52.706 809.284c0 54.172 43.81 98.011 98.011 98.011h722.567c54.172 0 98.011-43.81 98.011-98.011v-722.567c0-54.172-43.81-98.011-98.011-98.011h-722.567c-54.172 0-98.011 43.81-98.011 98.011v722.567zM7.529 809.284v-722.567c0-79.157 64.071-143.187 143.187-143.187h722.567c79.157 0 143.187 64.071 143.187 143.187v722.567c0 79.157-64.071 143.187-143.187 143.187h-722.567c-79.157 0-143.187-64.071-143.187-143.187v0zM286.118 417.882h466.824v90.353h-466.824v-90.353z" />
<glyph unicode="&#xe90c;" glyph-name="outlet" horiz-adv-x="827" d="M65.154 642.297c0 78.959 81.191 145.459 184.288 145.459h320.278c102.908 0 184.288-66.621 184.288-145.459v-681.234h59.077v681.234c0 114.367-110.146 204.536-243.365 204.536h-320.278c-133.413 0-243.365-90.058-243.365-204.536v-681.234h59.077v681.234zM466.774 799.457v160.543h-78.769v-160.543h78.769zM297.061 494.354h242.708v39.385h-242.708v-39.385zM297.061 315.972h242.708v39.385h-242.708v-39.385zM297.061 137.59h242.708v39.385h-242.708v-39.385zM297.061-40.791h242.708v39.385h-242.708v-39.385z" />
<glyph unicode="&#xe90d;" glyph-name="cnw" d="M331.229 517.614c0-101.641 78.936-184.338 175.987-184.338 75.070 0 139.034 46.68 163.134 118.855l7.68 23.022h-76.57l-4.643-10.187c-16.808-36.899-50.3-58.898-89.6-58.898-56.408 0-102.276 50.052-102.276 111.545 0 61.44 45.868 111.475 102.276 111.475 55.578 0 79.943-36.758 89.512-58.598l4.537-10.558h76.465l-7.345 22.881c-23.481 73.145-85.963 118.554-163.169 118.554-97.050 0-175.987-82.432-175.987-183.755zM332.818 214.334h346.13v75.229h-346.13zM108.791 449.201c0 219.012 178.123 397.1 397.030 397.1 219.030 0 397.171-178.088 397.171-397.1 0-218.924-178.141-397.030-397.171-397.030-218.906 0-397.030 178.105-397.030 397.030zM0 449.201c0-278.952 226.94-505.821 505.821-505.821 279.005 0 505.927 226.869 505.927 505.821 0 278.987-226.922 505.891-505.927 505.891-278.881 0-505.821-226.904-505.821-505.891z" />
<glyph unicode="&#xe90e;" glyph-name="drag-grip" horiz-adv-x="384" d="M0 896h128v-128h-128v128zM0 640h128v-128h-128v128zM0 384h128v-128h-128v128zM0 128h128v-128h-128v128zM256 896h128v-128h-128v128zM256 640h128v-128h-128v128zM256 384h128v-128h-128v128zM256 128h128v-128h-128v128z" />
<glyph unicode="&#xe90f;" glyph-name="search-again" horiz-adv-x="1056" d="M1028.902-9.772l-254.701 253.246c-0.096 0.127-0.287 0.158-0.382 0.285 68.037 76.037 109.712 175.911 109.712 285.724 0 237.766-193.859 430.517-432.992 430.517s-432.992-192.751-432.992-430.517c0-237.766 193.859-430.517 432.992-430.517 110.445 0 210.892 41.437 287.366 109.086 0.096-0.095 0.127-0.285 0.287-0.38l254.701-253.246c4.967-4.97 11.493-7.439 17.988-7.439s13.053 2.469 17.988 7.439c9.965 9.908 9.965 25.894 0 35.803v0 0h0.032zM68.521 529.483c0 209.466 171.382 379.868 382.051 379.868s382.051-170.403 382.051-379.868c0-209.466-171.382-379.868-382.051-379.868s-382.051 170.403-382.051 379.868v0zM608.874 676.572c-41.487 37.651-96.808 60.677-157.465 60.677-128.441 0-232.926-103.124-232.926-229.892s104.485-229.892 232.926-229.892c64.116 0 122.254 25.704 164.412 67.209l-46.093 45.493c-30.351-29.853-72.196-48.332-118.319-48.332-92.47 0-167.707 74.257-167.707 165.522s75.237 165.522 167.707 165.522c42.694 0 81.677-15.846 111.313-41.859l-55.41-54.689h158.39v156.327l-56.826-56.086z" />
<glyph unicode="&#xe910;" glyph-name="search-nav" d="M1016.491-20.309l-256 256c-0.102 0.137-0.273 0.171-0.375 0.273 68.369 76.868 110.285 177.835 110.285 288.836 0 240.367-194.833 435.2-435.2 435.2s-435.2-194.833-435.2-435.2c0-240.367 194.833-435.2 435.2-435.2 111.002 0 211.968 41.882 288.836 110.285 0.102-0.102 0.137-0.273 0.273-0.375l256-256c4.983-5.018 11.537-7.509 18.091-7.509s13.107 2.492 18.091 7.509c10.001 10.001 10.001 26.18 0 36.181v0 0zM51.2 524.8c0 211.729 172.271 384 384 384s384-172.271 384-384c0-211.729-172.271-384-384-384s-384 172.271-384 384zM561.512 768.239c-135.28 68.928-300.823 15.14-369.751-120.139-62.552-122.765-24.376-272.397 87.703-350.342l21.654 31.136c-96.57 67.16-129.484 196.165-75.565 301.987 59.419 116.617 202.124 162.984 318.741 103.565l17.218 33.792z" />
<glyph unicode="&#xe911;" glyph-name="lists" horiz-adv-x="989" d="M482.021 224.268l-269.814-141.849 38.425-27.918 53.883 314.164-228.254 222.492-14.677-45.171 315.439 45.836 141.069 285.836h-47.496l141.069-285.836 315.439-45.836-14.677 45.171-228.254-222.492 53.883-314.164 38.425 27.918-282.137 148.328-12.324-6.479zM506.668 177.387h-24.647l317.31-166.82-60.601 353.33-7.616-23.441 256.709 250.229-354.763 51.55 19.94-14.487-158.655 321.47-158.655-321.47 19.94 14.487-354.763-51.55 256.709-250.229-7.616 23.441-60.601-353.33 317.31 166.82zM769.766 705.766c0-14.487-11.744-26.231-26.231-26.231s-26.231 11.744-26.231 26.231c0 14.487 11.744 26.231 26.231 26.231s26.231-11.744 26.231-26.231zM569.152 6.041c0-24.279-19.682-43.961-43.961-43.961s-43.961 19.682-43.961 43.961c0 24.279 19.682 43.961 43.961 43.961s43.961-19.682 43.961-43.961zM254.285 832.353c0-31.495-25.532-57.026-57.026-57.026s-57.026 25.532-57.026 57.026c0 31.495 25.532 57.026 57.026 57.026s57.026-25.532 57.026-57.026z" />
<glyph unicode="&#xe912;" glyph-name="move-to-top" d="M85.333 393.143l426.667 396.19 426.667-396.19-91.429-91.429-274.286 259.048v-624.762h-121.905v624.762l-274.286-259.048zM0 960h1024v-170.667h-1024v170.667z" />
<glyph unicode="&#xe913;" glyph-name="campaign" d="M593.92 448c0-45.243-36.677-81.92-81.92-81.92s-81.92 36.677-81.92 81.92c0 45.243 36.677 81.92 81.92 81.92s81.92-36.677 81.92-81.92zM283.192 719.299c0-28.271-22.918-51.19-51.19-51.19s-51.19 22.918-51.19 51.19c0 28.271 22.918 51.19 51.19 51.19s51.19-22.918 51.19-51.19zM926.71 555.52c0-28.271-22.918-51.19-51.19-51.19s-51.19 22.918-51.19 51.19c0 28.271 22.918 51.19 51.19 51.19s51.19-22.918 51.19-51.19zM809.185 454.303c7.506 6.922 14.771 13.829 21.704 20.705-9.021 4.992-17.321 11.448-24.371 19.43-6.738-6.579-13.798-13.215-21.105-19.881-30.633 25.324-64.671 50.58-101.504 75.167-3.133 46.648-8.484 90.936-15.775 131.891 119.721 37.755 211.661 39.301 235.156-1.388 6.036-10.455 7.363-23.45 4.485-38.395 9.769-3.645 18.893-9.047 27.023-15.887 7.496 26.563 6.303 50.222-4.905 69.642-32.159 55.7-135.782 57.431-267.694 16.609-30.024 142.464-84.797 237.486-151.311 237.486-66.796 0-121.748-95.805-151.695-239.258-11.94 3.814-23.68 7.327-35.149 10.45 0.184-10.301-1.254-20.705-4.639-30.797 11.023-3.092 22.354-6.559 33.9-10.317-6.861-38.963-11.971-80.922-15.094-125.030-39.854-26.173-76.559-53.171-109.389-80.251-94.121 85.627-142.397 165.478-118.702 206.515 6.036 10.455 16.625 18.094 31.007 23.081-1.731 10.281-1.613 20.879 0.241 31.34-26.742-6.794-46.643-19.64-57.851-39.055-32.384-56.090 18.811-147.558 121.539-242.084-113.567-99.661-171.955-197.796-137.897-256.783 34.171-59.192 149.048-57.421 292.823-8.412 30.111-141.409 84.685-235.597 150.912-235.597 21.842 0 42.414 10.271 61.261 29.076-9.964 3.727-19.123 9.062-27.11 15.795-11.090-9.231-22.548-14.152-34.15-14.152-48.558 0-94.628 85.832-121.477 215.378 37.96 14.244 77.609 31.606 118.057 51.768 42.737-21.238 84.531-39.286 124.401-53.883-2.78-13.266-5.74-26.117-8.904-38.405 10.414-2.135 20.137-6.113 28.943-11.438 3.374 12.687 6.502 25.907 9.431 39.516 140.078-46.403 251.366-46.991 284.913 11.116 33.971 58.839-24.054 156.636-137.073 256.046zM761.851 453.775c-23.096-19.732-48.445-39.629-75.807-59.31 0.717 18.755 1.116 37.796 1.116 57.119 0 20.116-0.41 39.941-1.183 59.433 27.197-18.913 52.531-38.113 75.873-57.242zM365.332 451.584c0 29.292 0.906 57.938 2.611 85.74 18.616 11.976 37.888 23.767 57.805 35.267 27.453 15.852 54.789 30.403 81.7 43.648 26.435-13.046 53.258-27.32 80.215-42.885 23.030-13.297 45.189-26.988 66.463-40.899 1.516-26.271 2.314-53.289 2.314-80.87 0-27.034-0.773-53.519-2.237-79.299-26.179-17.669-53.873-35.041-82.903-51.799-21.402-12.355-42.721-23.916-63.831-34.693-21.612 10.998-43.443 22.804-65.362 35.461-25.861 14.93-50.632 30.351-74.255 46.034-1.649 27.341-2.519 55.511-2.519 84.296zM651.361 570.813c-15.693 9.871-31.811 19.604-48.338 29.148-20.198 11.663-40.33 22.63-60.308 32.963 32.993 15.043 65.091 27.986 95.703 38.753 5.494-31.626 9.871-65.418 12.943-100.864zM510.889 918.963c48.696 0 94.889-86.328 121.697-216.499-39.89-13.809-81.93-31.227-125.066-51.953-40.842 19.686-80.732 36.429-118.738 49.946 26.747 131.282 73.16 218.506 122.107 218.506zM383.002 669.583c28.672-10.348 58.593-22.595 89.267-36.618-20.495-10.568-41.149-21.801-61.875-33.772-13.46-7.772-26.644-15.672-39.557-23.665 2.97 32.952 7.081 64.445 12.165 94.054zM336 516.111c-0.916-21.125-1.388-42.66-1.388-64.527 0-21.146 0.44-41.974 1.3-62.423-30.269 21.386-58.214 43.080-83.456 64.589 25.508 20.864 53.478 41.795 83.543 62.362zM93.757 212.844c-24.991 43.29 30.126 129.766 134.636 220.657 32.538-28.022 69.376-56.095 109.691-83.4 3.21-46.106 8.596-89.871 15.877-130.35-131.82-45.64-235.095-50.391-260.204-6.907zM383.529 230.502c-5.381 30.802-9.702 63.683-12.785 98.135 18.094-11.535 36.777-22.892 56.003-33.992 15.534-8.97 31.032-17.531 46.449-25.718-30.705-14.597-60.744-27.428-89.667-38.426zM541.742 268.959c14.915 7.941 29.901 16.251 44.918 24.919 22.374 12.913 43.976 26.184 64.794 39.675-3.18-37.094-7.808-72.361-13.629-105.267-30.874 11.469-63.084 25.042-96.082 40.673zM919.649 213.612c-24.602-42.604-124.232-38.902-252.216 4.178 7.736 42.542 13.353 88.75 16.568 137.508 37.284 25.682 71.465 51.978 101.868 78.228 103.972-90.619 158.705-176.742 133.78-219.914zM655.575 68.792c0-28.274-22.921-51.195-51.195-51.195s-51.195 22.921-51.195 51.195c0 28.274 22.921 51.195 51.195 51.195s51.195-22.921 51.195-51.195z" />
<glyph unicode="&#xe917;" glyph-name="binocular" horiz-adv-x="1100" d="M633.146 182.641v594.043c0 138.182 161.59 166.732 208.1 38.829 54.884-150.93 118.843-340.095 183.387-542.146l46.966 15.003c-64.73 202.632-128.893 392.399-184.017 543.992-65.37 179.769-303.739 137.654-303.739-55.678v-594.043h49.304zM787.214 805.066l78.71-265.788c1.784-6.025 8.115-9.463 14.14-7.679s9.463 8.115 7.679 14.14l-78.71 265.788c-1.784 6.025-8.115 9.463-14.14 7.679s-9.463-8.115-7.679-14.14v0zM833.774-44.658c138.034 0 249.932 111.898 249.932 249.932s-111.898 249.932-249.932 249.932c-138.034 0-249.932-111.898-249.932-249.932s111.898-249.932 249.932-249.932v0zM833.774 4.646c-110.804 0-200.628 89.824-200.628 200.628s89.824 200.628 200.628 200.628c110.804 0 200.628-89.824 200.628-200.628s-89.824-200.628-200.628-200.628v0zM466.688 698.311h159.751v37.926h-159.751v-37.926zM466.688 411.591h159.751v37.926h-159.751v-37.926zM463.834 182.641v594.043c0 138.182-161.59 166.732-208.1 38.829-54.884-150.93-118.843-340.095-183.387-542.146l-46.966 15.003c64.73 202.632 128.893 392.399 184.017 543.992 65.37 179.769 303.739 137.654 303.739-55.678v-594.043h-49.304zM309.766 805.066l-78.71-265.788c-1.784-6.025-8.115-9.463-14.14-7.679s-9.463 8.115-7.679 14.14l78.71 265.788c1.784 6.025 8.115 9.463 14.14 7.679s9.463-8.115 7.679-14.14v0zM263.206-44.658c-138.034 0-249.932 111.898-249.932 249.932s111.898 249.932 249.932 249.932c138.034 0 249.932-111.898 249.932-249.932s-111.898-249.932-249.932-249.932v0zM263.206 4.646c110.804 0 200.628 89.824 200.628 200.628s-89.824 200.628-200.628 200.628c-110.804 0-200.628-89.824-200.628-200.628s89.824-200.628 200.628-200.628v0z" />
<glyph unicode="&#xe918;" glyph-name="analytics-nav" horiz-adv-x="2141" d="M739.039 542.681l-243.564-248.551-60.11 61.319 243.564 248.551 60.11-61.319zM1714.996 541.746l-235.936-246.752-60.844 60.562 235.936 246.752 60.844-60.562zM1189.901 291.766l-309.441 259.342 53.955 67.015 309.441-259.342-53.955-67.015zM362.19 43.275c-93.891 0-170.003 77.658-170.003 173.454s76.113 173.454 170.003 173.454c93.891 0 170.003-77.658 170.003-173.454s-76.113-173.454-170.003-173.454v0 0zM362.19 101.094c62.594 0 113.336 51.772 113.336 115.635s-50.742 115.635-113.336 115.635c-62.594 0-113.336-51.772-113.336-115.635s50.742-115.635 113.336-115.635v0 0zM815.533 505.818c-93.891 0-170.003 77.658-170.003 173.454s76.113 173.454 170.003 173.454c93.891 0 170.003-77.658 170.003-173.454s-76.113-173.454-170.003-173.454v0 0zM815.533 563.635c62.594 0 113.336 51.772 113.336 115.635s-50.742 115.635-113.336 115.635c-62.594 0-113.336-51.772-113.336-115.635s50.742-115.635 113.336-115.635v0 0zM1325.544 43.275c-93.891 0-170.003 77.658-170.003 173.454s76.113 173.454 170.003 173.454c93.891 0 170.003-77.658 170.003-173.454s-76.113-173.454-170.003-173.454v0 0zM1325.544 101.094c62.594 0 113.336 51.772 113.336 115.635s-50.742 115.635-113.336 115.635c-62.594 0-113.336-51.772-113.336-115.635s50.742-115.635 113.336-115.635v0 0zM1778.887 505.818c-93.891 0-170.003 77.658-170.003 173.454s76.113 173.454 170.003 173.454c93.891 0 170.003-77.658 170.003-173.454s-76.113-173.454-170.003-173.454v0 0zM1778.887 563.635c62.594 0 113.336 51.772 113.336 115.635s-50.742 115.635-113.336 115.635c-62.594 0-113.336-51.772-113.336-115.635s50.742-115.635 113.336-115.635v0 0z" />
<glyph unicode="&#xe919;" glyph-name="custom" d="M278.762 53.395h524.775c27.982 0 50.587 22.456 50.587 50.069v437.47c0 20.709-16.891 37.425-37.814 37.425h-218.901c-20.923 0-37.814 16.716-37.814 37.425v210.586c0 20.709-16.891 37.425-37.814 37.425h-243.019c-27.982 0-50.587-22.456-50.587-50.069v-64.207l339.571-333.76c8.907-8.816 15.712-19.712 19.662-31.521l40.084-121.178c3.361-10.145 4.117-20.957 2.268-31.438-1.681-9.648-5.714-19.045-11.596-27.031-12.438-16.966-32.353-27.113-53.361-27.113-5.378 0-10.841 0.666-16.052 1.996l-130.165 32.436c-13.949 3.493-26.807 10.646-36.974 20.627l-153.524 150.868v-279.865c0-27.694 22.689-50.15 50.672-50.15v0zM837.403 635.414c14.958 0 22.436 17.882 11.849 28.361l-197.137 195.2c-10.588 10.479-28.654 3.078-28.654-11.727v-195.115c0-9.231 7.563-16.716 16.891-16.716h197.054zM164.692 712.030c-9.223 0-18.517-3.019-24.615-9.056l-49.959-49.446c-12.053-11.93-12.272-36.15-0.436-47.865l43.568-42.834 98.754 97.743-43.568 42.834c-5.881 5.749-14.74 8.624-23.744 8.624v0zM380.356 319.91l98.754 97.743-216.171 212.518-98.754-97.743 216.171-212.518zM527.327 263.062c1.090-0.288 2.178-0.433 3.268-0.433 8.714 0 15.611 8.624 12.779 17.393l-34.71 104.713c-0.074 0.288-0.219 0.576-0.29 0.791l-95.051-94.006c0.509-0.144 1.016-0.287 1.452-0.432l112.551-28.028z" />
<glyph unicode="&#xe91a;" glyph-name="magazine" d="M527.114 53.534c2.797 0.449 5.562 1.567 8.089 3.461 33.759 25.291 92.673 38.49 158.031 42.427 149.604 9.015 225.437-100.815 225.437-90.774v617.269c0 44.479-38.581 82.945-98.325 105.576 0-170.038 0-524.701 0-524.701s-159.024 53.149-293.232-153.26zM512 733.986c118.233 175.113 236.466 144.023 236.466 144.023s0-589.555 0-589.555c0 0-160.216 5.54-236.466-193.702 3.632-8.302-0.014 632.877 0 639.234zM279.931 753.004c-126.414 0-225.437-55.827-225.437-127.085v-617.269c0-10.041 42.871 90.77 225.437 90.774 65.395 0.002 124.272-17.139 158.031-42.447 12.154-9.096 29.834-0.236 29.834 14.634v625.095c-40.016 34.095-108.378 56.299-187.865 56.299z" />
<glyph unicode="&#xe91b;" glyph-name="newspaper" d="M188.224 108.893c0-58.456-43.159-80.246-43.159-80.246h698.243c43.375 0 78.78 35.042 78.78 78.267v629.753c0 43.466-35.162 78.267-78.537 78.267h-576.793c-43.141 0-78.537-35.239-78.537-78.71v-627.33zM293.063 710.095h262.095v-366.933h-262.095v366.933zM607.577 710.095h228.503v-52.419h-228.503v52.419zM607.577 605.258h228.503v-52.419h-228.503v52.419zM607.577 500.419h228.503v-52.419h-228.503v52.419zM607.577 395.581h228.503v-52.419h-228.503v52.419zM293.063 290.742h543.017v-52.419h-543.017v52.419zM293.063 185.905h543.017v-52.419h-543.017v52.419zM145.758 183.119c0-2.697 0 579.395 0 579.395s-52.888-10.72-52.888-80.723c0-70.003-0.501-590.894 0-590.443 20.271-16.408 52.888 21.663 52.888 91.771z" />
<glyph unicode="&#xe91c;" glyph-name="online" d="M92.649 710.547c0 57.651 46.89 104.386 104.526 104.386h629.651c57.728 0 104.526-47.265 104.526-104.386v-406.58c0-57.651-46.89-104.386-104.526-104.386h-629.651c-57.728 0-104.526 47.265-104.526 104.386v406.58zM507.462 611.281c3.084 2.45 4.303 5.096 2.825 8.951-0.547 3.755-3.15 5.879-6.781 7.185l-273.74 84.255c-1.863 0.195-4.658 0.491-7.742-1.96s-3.276-4.279-3.565-7.022l6.506-296.59c-0.385-3.658 2.121-6.696 5.753-8.001s7.453-0.784 9.51 0.85l75.032 59.618 116.292-141.065c1.67-2.024 4.371-3.234 6.234-3.429s4.754 0.426 6.809 2.057l102.782 81.668c4.11 3.267 4.688 8.754 1.345 12.804l-116.292 141.065 75.032 59.618zM249.905 131.207h524.191c86.85 0 157.258-22.959 157.258-51.279s-70.406-51.279-157.258-51.279h-524.191c-86.85 0-157.258 22.959-157.258 51.279s70.406 51.279 157.258 51.279z" />
<glyph unicode="&#xe91d;" glyph-name="prweb" d="M42.667 737.897h98.426l135.085-363.758-49.296-134.444-184.215 498.202zM446.848 746.667l-197.649-576.576h85.961l199.731 576.576zM567.033 693.126l-39.345-119.651 139.909-394.615h64.746l210.63 567.807h-88.64l-148.603-412.772-138.696 359.231z" />
<glyph unicode="&#xe91e;" glyph-name="ellipse" d="M307.649 448c0-47.128-40.216-85.333-89.825-85.333s-89.825 38.205-89.825 85.333c0 47.128 40.216 85.333 89.825 85.333s89.825-38.205 89.825-85.333zM601.825 448c0-47.128-40.216-85.333-89.825-85.333s-89.825 38.205-89.825 85.333c0 47.128 40.216 85.333 89.825 85.333s89.825-38.205 89.825-85.333zM896 448c0-47.128-40.216-85.333-89.825-85.333s-89.825 38.205-89.825 85.333c0 47.128 40.216 85.333 89.825 85.333s89.825-38.205 89.825-85.333z" />
<glyph unicode="&#xe91f;" glyph-name="share-alt" horiz-adv-x="967" d="M780.8 599.324c88.519 0 159.004 70.485 159.004 159.004s-70.485 159.004-159.004 159.004c-88.519 0-159.004-70.485-159.004-159.004 0-19.381 4.027-39.517 11.247-58.77l6.285 17.356-330.931-188.217 18.069-3.394c-30.75 37.846-76.643 61.098-124.796 61.098-88.519 0-159.004-70.485-159.004-159.004s70.485-159.004 159.004-159.004c48.152 0 94.046 23.253 124.796 61.098l-18.069-3.394 330.931-188.217-6.285 17.356c-7.22-19.253-11.247-39.389-11.247-58.77 0-88.519 70.485-159.004 159.004-159.004s159.004 70.485 159.004 159.004c0 88.519-70.485 159.004-159.004 159.004-48.152 0-94.046-23.253-124.796-61.098l18.069 3.394-330.931 188.217 6.285-17.356c7.22 19.253 11.247 39.389 11.247 58.77s-4.027 39.517-11.247 58.77l-6.285-17.356 330.931 188.217-18.069 3.394c30.75-37.846 76.643-61.098 124.796-61.098v0z" />
<glyph unicode="&#xe920;" glyph-name="add-person" horiz-adv-x="951" d="M754.939-36.848c96.62 0 175.020 77.609 175.020 173.437s-78.401 173.437-175.020 173.437c-96.62 0-175.020-77.609-175.020-173.437s78.401-173.437 175.020-173.437v0zM754.939-0.277c-76.505 0-138.449 61.319-138.449 136.866s61.944 136.866 138.449 136.866c76.505 0 138.449-61.319 138.449-136.866s-61.944-136.866-138.449-136.866v0zM773.084 154.378h62.183v-35.961h-62.183v-70.14h-38.619v70.14h-62.511v35.961h62.511v65.605h38.619v-65.605zM647.27 311.936c13.469 13.34 4.545 24.282 20.422 33.247-42.707 16.661-64.34 28.93-74.079 42.869-10.029 14.353-6.859 34.567 17.714 69.196 159.662 224.998 96.88 499.39-148.373 499.39-243.030 0-309.011-268.66-160.274-498.546 22.582-34.902 24.768-55.246 13.938-69.885-10.634-14.374-33.138-26.593-78.227-43.63 2.594 0.98-45.097-16.674-58.927-22.143-122.623-48.495-181.628-109.943-172.668-227.561l1.673-21.966h22.029c26.58 0 26.58 0 132.898 0 132.898 0 132.898 0 292.377 0 34.407 0 61.39 0 83.887 0 6.885 119.247 37.688 193.255 83.907 239.030-39.738-39.356-68.080-99.583-79.623-191.487-23.342 0-51.552 0-88.171 0-159.478 0-159.478 0-292.377 0-106.319 0-82.616 0-109.196 0-7.003 91.921 37.267 116.058 142.747 157.773 13.253 5.241 60.399 22.693 58.248 21.88 53.747 20.309 81.59 35.426 99.643 59.829 24.447 33.045 20.034 74.101-12.242 123.987-131.225 202.82-76.616 425.177 120.358 425.177 198.328 0 250.112-226.323 109.6-424.333-34.988-49.305-41.416-90.303-17.913-123.94 13.79-19.737 34.234-33.631 68.926-48.885h23.703z" />
<glyph unicode="&#xe921;" glyph-name="media-updates" horiz-adv-x="827" d="M47.262 881.349v0-866.697c0-17.329 14.039-31.39 31.293-31.39h669.967c17.063 0 31.293 14.202 31.293 31.39v866.697c0 17.329-14.039 31.39-31.293 31.39h-669.967c-17.063 0-31.293-14.202-31.293-31.39v0zM0 881.349c0 43.438 35.538 78.651 78.555 78.651h669.967c43.385 0 78.555-35.248 78.555-78.651v-866.697c0-43.438-35.538-78.651-78.555-78.651h-669.967c-43.385 0-78.555 35.248-78.555 78.651v866.697zM312.613 590.322c-43.421 0-48.615 16-59.667 24.901-12.964-9.225-38.891-27.676-38.891-27.676-10.634-6.892-17.132-18.797-17.132-31.955v-28.822h236.308v28.822c0 13.158-6.498 25.69-17.132 31.955 0 0-23.401 17.66-35.101 26.49-11.154-8.33-24.964-23.715-68.384-23.715zM315.077 614.49v0c-38.991 0-70.892 33.835-70.892 75.189v37.594c0 41.354 31.902 75.189 70.892 75.189v0c38.991 0 70.892-33.835 70.892-75.189v-37.594c0-41.354-31.902-75.189-70.892-75.189v0zM214.239 408.615h392.482c9.561 0 17.316-8.82 17.316-19.694s-7.755-19.694-17.316-19.694h-392.482c-9.559 0-17.316 8.82-17.316 19.694 0 10.872 7.757 19.694 17.316 19.694v0zM214.239 290.458h392.482c9.561 0 17.316-8.82 17.316-19.694s-7.755-19.694-17.316-19.694h-392.482c-9.559 0-17.316 8.82-17.316 19.694 0 10.872 7.757 19.694 17.316 19.694v0zM214.239 172.308h392.482c9.561 0 17.316-8.82 17.316-19.694s-7.755-19.694-17.316-19.694h-392.482c-9.559 0-17.316 8.82-17.316 19.694 0 10.872 7.757 19.694 17.316 19.694v0z" />
<glyph unicode="&#xe922;" glyph-name="activities" horiz-adv-x="986" d="M379.259-2.063h-297.099c-5.426 0-9.828 4.455-9.828 9.881v881.257c0 5.439 4.402 9.846 9.828 9.846h466.83v-149.801c0-14.263 11.581-25.825 25.806-25.825h134.463v-142.543c14.88-0.003 31.972-0.007 51.559-0.011 0 67.812 0 179.464 0 179.464l-174.731 190.47h-503.927c-33.836 0-61.389-27.661-61.389-61.599v-881.255c0-33.99 27.553-61.608 61.389-61.608 0 0 184.803 0 297.099 0v51.725zM457.181 380.61h-246.559c-8.336 0-15.101 8.679-15.101 19.379s6.764 19.379 15.101 19.379h283.214c-35.824-38.758 0 0-36.655-38.758zM600.577 858.498l76.587-83.504h-76.587v83.504zM567.997 525.952c0-10.698-6.763-19.379-15.101-19.379h-342.275c-8.336 0-15.101 8.679-15.101 19.379s6.764 19.379 15.101 19.379h342.275c8.338 0 15.101-8.681 15.101-19.379v0zM210.621 675.559h342.275c8.338 0 15.101-8.679 15.101-19.379s-6.763-19.379-15.101-19.379h-342.275c-8.336 0-15.101 8.679-15.101 19.379 0 10.698 6.764 19.379 15.101 19.379v0zM773.995 424.283l178.753-190.72-113.767 1.986c-2.292-131.28-54.239-303.903-278.36-299.991 105.75 60.297 138.771 126.553 141.84 302.374l-113.767 1.986 185.301 184.366z" />
<glyph unicode="&#xe923;" glyph-name="coverage" d="M1005.797 325.37l-35.186 13.87c38.985 194.102-46.785 402.018-228.354 511.116-146.312 87.913-322.206 94.632-471.896 18.321l26.822-14.88c10.142-6.094 10.966-12.322 10.526-15.49-0.434-3.275-2.985-9.26-15.289-12.509l-133.867-35.183c-7.062-1.833-12.943-1.526-16.963 0.89-2.51 1.508-10.059 7.623-1.691 22.711l66.734 120.113c3.508 6.303 7.689 10.244 12.096 11.372 7.174 1.903 13.781-3.749 16.933-15.152l9.222-33.382c163.098 86.791 355.723 81.176 516.249-15.278 197.422-118.623 289.664-345.758 244.662-556.519zM18.524 572.12l35.158-13.915c-39.702-194.515 46.042-403.193 228.062-512.561 146.312-87.913 322.206-94.632 471.896-18.321l-26.822 14.88c-10.142 6.094-10.966 12.322-10.526 15.49 0.434 3.275 2.985 9.26 15.289 12.509l133.867 35.183c7.062 1.833 12.943 1.526 16.963-0.89 2.51-1.508 10.059-7.623 1.691-22.711l-66.734-120.113c-3.508-6.303-7.689-10.244-12.096-11.372-7.174-1.903-13.781 3.749-16.933 15.152l-9.222 33.382c-163.098-86.791-355.723-81.176-516.249 15.278-197.887 118.903-290.098 346.83-244.342 558.010zM672.196 701.857c-27.138 17.161-57.218 30.091-89.313 37.862-42.635-4.291-85.701-3.303-128.137 2.964-32.513-6.28-63.156-17.807-91.014-33.665 100.216-30.585 207.192-32.972 308.464-7.161zM766.237 607.593c-9.675 15.38-20.706 29.819-32.926 43.152-138.822-62.222-299.445-60.175-436.832 6.142-12.593-12.991-24.023-27.117-34.119-42.209 157.537-80.338 344.605-82.699 503.878-7.084zM807.984 498.050c-3.087 18.392-7.847 36.217-14.118 53.312-171.436-106.284-391.491-103.019-559.94 9.796-6.876-16.881-12.26-34.528-15.988-52.779 179.299-112.875 407.749-116.317 590.046-10.329zM799.546 361.702c6.669 22.252 10.825 45.591 12.14 69.686-181.218-122.986-423.153-118.368-599.811 13.851 0.218-24.184 3.296-47.685 8.913-70.181 176.101-109.409 398.861-113.861 578.759-13.356zM613.235 165.364c53.923 19.317 100.709 53.627 135.335 97.906-153.368-74.876-336.071-69.389-485.139 16.462 31.724-46.771 76.302-84.116 128.659-106.959 72.571-16.827 147.795-19.296 221.145-7.409z" />
<glyph unicode="&#xe92c;" glyph-name="wire" horiz-adv-x="1186" d="M863.837 740.79c60.37 0 109.31 49.072 109.31 109.605s-48.94 109.605-109.31 109.605c-60.37 0-109.31-49.072-109.31-109.605s48.94-109.605 109.31-109.605zM109.31 346.213c60.37 0 109.31 49.072 109.31 109.605s-48.94 109.605-109.31 109.605c-60.37 0-109.31-49.072-109.31-109.605s48.94-109.605 109.31-109.605zM863.837-13.736c60.37 0 109.31 49.072 109.31 109.605s-48.94 109.605-109.31 109.605c-60.37 0-109.31-49.072-109.31-109.605s48.94-109.605 109.31-109.605zM1058.884 346.213c60.37 0 109.31 49.072 109.31 109.605s-48.94 109.605-109.31 109.605c-60.37 0-109.31-49.072-109.31-109.605s48.94-109.605 109.31-109.605zM751.765 750.158c11.893-10.216 26.563-20.655 44.546-30.347l-92.885-132.117c-13.742 13.693-29.065 23.233-45.139 29.503l93.478 132.962zM444.898 478.187c-0.615-18.021 0.5-36.398 3.552-53.895h-194.006c2.162 16.047 3.158 34.007 2.325 53.895h188.129zM786.308 215.924c-13.462-7.539-27.057-19.615-38.248-38.774l-107.676 142.373c17.553 7.511 33.438 16.469 47.387 26.69l98.537-130.289zM921.706 482.224c-4.151-14.957-6.722-33.638-3.447-53.895h-169.904c4.937 16.922 6.598 34.978 4.584 53.895h168.767zM594.728 362.794c60.572 0 109.676 49.236 109.676 109.971s-49.104 109.971-109.676 109.971c-60.572 0-109.676-49.236-109.676-109.971s49.104-109.971 109.676-109.971z" />
</font>
</defs>
</svg>
